<?xml version="1.0" encoding="UTF-8"?> <svg xmlns="http://www.w3.org/2000/svg" data-v-fde0c5aa="" viewBox="0 0 300 300" class="iconLeft"><!----><defs data-v-fde0c5aa=""><!----></defs><rect data-v-fde0c5aa="" fill="#386766" x="0" y="0" width="300px" height="300px" class="logo-background-square"></rect><defs data-v-fde0c5aa=""><!----></defs><g data-v-fde0c5aa="" id="f6e43c82-a0b5-40e8-a8dd-5d9ddef7f373" fill="#FFFFFF" transform="matrix(3.03644854431635,0,0,3.03644854431635,113.73427454240733,124.5849245836746)"><path d="M2.04 14.18L2.04 14.18Q1.20 14.18 0.65 13.82L0.65 13.82L0.65 13.82Q0.10 13.45 0.10 12.75L0.10 12.75L0.10 12.75Q0.10 12.29 0.36 12.01L0.36 12.01L0.36 12.01Q0.62 11.72 1.04 11.72L1.04 11.72L1.04 11.72Q1.37 11.72 1.57 11.90L1.57 11.90L1.57 11.90Q1.76 12.08 1.84 12.29L1.84 12.29L1.84 12.29Q1.92 12.49 1.92 12.54L1.92 12.54L1.92 12.54Q1.51 12.84 1.51 13.23L1.51 13.23L1.51 13.23Q1.51 13.50 1.68 13.68L1.68 13.68L1.68 13.68Q1.85 13.86 2.14 13.86L2.14 13.86L2.14 13.86Q2.59 13.86 2.85 13.25L2.85 13.25L2.85 13.25Q3.11 12.64 3.11 11.14L3.11 11.14L3.11 3.21L1.82 3.01L1.82 2.70L5.88 2.70L5.88 3.01L4.59 3.21L4.59 11.14L4.59 11.14Q4.59 12.12 4.40 12.78L4.40 12.78L4.40 12.78Q4.21 13.43 3.65 13.80L3.65 13.80L3.65 13.80Q3.09 14.18 2.04 14.18L2.04 14.18ZM9.66 14.04L9.66 14.04Q8.65 14.04 8.07 13.54L8.07 13.54L8.07 13.54Q7.49 13.03 7.49 12.04L7.49 12.04L7.49 7.07L6.51 6.93L6.51 6.65L8.89 6.65L8.89 12.01L8.89 12.01Q8.89 12.73 9.18 13.13L9.18 13.13L9.18 13.13Q9.48 13.54 10.09 13.54L10.09 13.54L10.09 13.54Q10.74 13.54 11.33 13.11L11.33 13.11L11.33 13.11Q11.93 12.68 12.39 12.05L12.39 12.05L12.39 7.07L11.41 6.93L11.41 6.65L13.79 6.65L13.79 13.48L14.77 13.62L14.77 13.90L12.39 13.90L12.39 12.56L12.39 12.56Q11.89 13.26 11.18 13.65L11.18 13.65L11.18 13.65Q10.47 14.04 9.66 14.04L9.66 14.04ZM18.83 13.90L15.40 13.90L15.40 13.62L16.45 13.48L16.45 3.12L15.40 2.98L15.40 2.70L17.85 2.70L17.85 13.48L18.83 13.62L18.83 13.90ZM22.83 13.90L19.40 13.90L19.40 13.62L20.45 13.48L20.45 3.12L19.40 2.98L19.40 2.70L21.85 2.70L21.85 13.48L22.83 13.62L22.83 13.90ZM25.00 5.03L25.00 5.03Q24.61 5.03 24.33 4.75L24.33 4.75L24.33 4.75Q24.05 4.48 24.05 4.09L24.05 4.09L24.05 4.09Q24.05 3.70 24.33 3.43L24.33 3.43L24.33 3.43Q24.60 3.16 25.00 3.16L25.00 3.16L25.00 3.16Q25.38 3.16 25.65 3.43L25.65 3.43L25.65 3.43Q25.91 3.70 25.91 4.09L25.91 4.09L25.91 4.09Q25.91 4.48 25.65 4.75L25.65 4.75L25.65 4.75Q25.38 5.03 25.00 5.03L25.00 5.03ZM26.88 13.90L23.52 13.90L23.52 13.62L24.50 13.48L24.50 7.08L23.52 6.94L23.52 6.66L25.90 6.66L25.90 13.48L26.88 13.62L26.88 13.90ZM31.47 14.04L31.47 14.04Q30.44 14.04 29.60 13.57L29.60 13.57L29.60 13.57Q28.76 13.10 28.27 12.25L28.27 12.25L28.27 12.25Q27.78 11.40 27.78 10.28L27.78 10.28L27.78 10.28Q27.78 9.16 28.26 8.31L28.26 8.31L28.26 8.31Q28.74 7.46 29.56 6.99L29.56 6.99L29.56 6.99Q30.38 6.52 31.39 6.52L31.39 6.52L31.39 6.52Q32.27 6.52 32.97 6.92L32.97 6.92L32.97 6.92Q33.67 7.31 34.06 8.00L34.06 8.00L34.06 8.00Q34.45 8.69 34.47 9.59L34.47 9.59L29.32 9.59L29.32 10.98L29.32 10.98Q29.32 12.21 29.87 12.97L29.87 12.97L29.87 12.97Q30.42 13.73 31.47 13.73L31.47 13.73L31.47 13.73Q32.44 13.73 33.18 13.19L33.18 13.19L33.18 13.19Q33.92 12.64 34.09 11.77L34.09 11.77L34.41 11.77L34.41 11.77Q34.22 12.81 33.42 13.43L33.42 13.43L33.42 13.43Q32.62 14.04 31.47 14.04L31.47 14.04ZM29.33 9.24L32.93 9.24L32.93 9.24Q32.93 8.02 32.55 7.43L32.55 7.43L32.55 7.43Q32.17 6.83 31.37 6.83L31.37 6.83L31.37 6.83Q30.44 6.83 29.92 7.49L29.92 7.49L29.92 7.49Q29.40 8.15 29.33 9.24L29.33 9.24ZM38.30 14.04L38.30 14.04Q37.38 14.04 36.83 13.58L36.83 13.58L36.83 13.58Q36.27 13.12 36.27 12.11L36.27 12.11L36.27 7.07L35.28 6.93L35.28 6.65L36.27 6.65L36.27 5.49L37.67 5.14L37.67 6.65L39.49 6.65L39.49 6.93L37.67 7.07L37.67 12.08L37.67 12.08Q37.67 13.57 38.74 13.57L38.74 13.57L38.74 13.57Q38.96 13.57 39.17 13.50L39.17 13.50L39.17 13.50Q39.37 13.43 39.49 13.36L39.49 13.36L39.49 13.36Q39.61 13.29 39.63 13.26L39.63 13.26L39.82 13.48L39.82 13.48Q39.19 14.04 38.30 14.04L38.30 14.04ZM40.94 5.99L40.94 5.99Q40.85 5.04 40.66 4.00L40.66 4.00L40.66 4.00Q40.53 3.37 40.53 3.12L40.53 3.12L40.53 3.12Q40.53 2.90 40.66 2.73L40.66 2.73L40.66 2.73Q40.80 2.56 41.05 2.56L41.05 2.56L41.05 2.56Q41.30 2.56 41.44 2.73L41.44 2.73L41.44 2.73Q41.58 2.90 41.58 3.12L41.58 3.12L41.58 3.12Q41.58 3.37 41.45 3.98L41.45 3.98L41.45 3.98Q41.44 4.06 41.34 4.61L41.34 4.61L41.34 4.61Q41.23 5.15 41.17 5.99L41.17 5.99L40.94 5.99ZM45.57 14.04L45.57 14.04Q44.42 14.04 43.65 13.55L43.65 13.55L43.65 13.55Q42.88 13.06 42.88 12.28L42.88 12.28L42.88 12.28Q42.88 11.87 43.10 11.64L43.10 11.64L43.10 11.64Q43.32 11.41 43.68 11.41L43.68 11.41L43.68 11.41Q43.96 11.41 44.16 11.55L44.16 11.55L44.16 11.55Q44.35 11.69 44.44 11.94L44.44 11.94L44.44 11.94Q44.13 12.28 44.13 12.66L44.13 12.66L44.13 12.66Q44.13 13.09 44.52 13.41L44.52 13.41L44.52 13.41Q44.91 13.73 45.57 13.73L45.57 13.73L45.57 13.73Q46.45 13.73 47.01 13.34L47.01 13.34L47.01 13.34Q47.57 12.94 47.57 12.26L47.57 12.26L47.57 12.26Q47.57 11.87 47.33 11.68L47.33 11.68L47.33 11.68Q47.10 11.48 46.41 11.23L46.41 11.23L44.30 10.46L44.30 10.46Q43.05 10.01 43.05 8.79L43.05 8.79L43.05 8.79Q43.05 7.80 43.74 7.16L43.74 7.16L43.74 7.16Q44.42 6.52 45.63 6.52L45.63 6.52L45.63 6.52Q46.62 6.52 47.33 6.98L47.33 6.98L47.33 6.98Q48.03 7.43 48.03 8.27L48.03 8.27L48.03 8.27Q48.03 8.61 47.85 8.81L47.85 8.81L47.85 8.81Q47.67 9.02 47.38 9.02L47.38 9.02L47.38 9.02Q47.08 9.02 46.89 8.86L46.89 8.86L46.89 8.86Q46.70 8.69 46.70 8.41L46.70 8.41L46.70 8.41Q46.89 8.27 46.96 8.11L46.96 8.11L46.96 8.11Q47.03 7.95 47.03 7.73L47.03 7.73L47.03 7.73Q47.03 7.34 46.68 7.08L46.68 7.08L46.68 7.08Q46.34 6.83 45.63 6.83L45.63 6.83L45.63 6.83Q45.01 6.83 44.57 7.02L44.57 7.02L44.57 7.02Q44.13 7.21 43.90 7.52L43.90 7.52L43.90 7.52Q43.68 7.83 43.68 8.15L43.68 8.15L43.68 8.15Q43.68 8.48 43.93 8.68L43.93 8.68L43.93 8.68Q44.17 8.88 44.83 9.11L44.83 9.11L46.79 9.81L46.79 9.81Q47.47 10.07 47.82 10.51L47.82 10.51L47.82 10.51Q48.17 10.96 48.17 11.68L48.17 11.68L48.17 11.68Q48.17 12.70 47.53 13.37L47.53 13.37L47.53 13.37Q46.89 14.04 45.57 14.04L45.57 14.04Z"></path></g><defs data-v-fde0c5aa=""><!----></defs><g data-v-fde0c5aa="" id="cf86eda7-2ca4-4534-86f8-5b473330cb90" stroke="none" fill="#45C6B1" transform="matrix(0.750958524352157,0,0,0.750958524352157,32.971029186054814,112.45170065789645)"><path d="M86.083 70.502c0 3.732-4.159 6.881-12.026 9.109-7.026 1.99-16.334 3.086-26.208 3.086s-19.182-1.096-26.208-3.086c-7.631-2.162-11.773-5.189-12.015-8.773a4.546 4.546 0 0 0-.266 1.508c0 7.119 17.403 12.893 38.87 12.893 21.468 0 38.87-5.773 38.87-12.893 0-1.105-.42-2.178-1.207-3.201.126.443.19.896.19 1.357z"></path><path d="M47.848 80.791c20.064 0 36.33-4.605 36.33-10.289 0-3.166-5.057-6-13.007-7.887a60.689 60.689 0 0 1-4.196 6.617c-.779 1.57-3.035 2.752-6.879 3.605-3.443.766-7.889 1.188-12.52 1.188-7.034 0-15.701-1.012-18.635-3.791h-.078l-.333-.449a2.771 2.771 0 0 1-.103-.139l-.072-.096a61.446 61.446 0 0 1-4.383-6.803c-7.63 1.887-12.452 4.662-12.452 7.754-.001 5.685 16.264 10.29 36.328 10.29z"></path><path d="M76.648 26.47a59.086 59.086 0 0 0-.781-5.106h-.044c-.585-3.67-13.005-6.602-28.247-6.602-15.243 0-27.663 2.932-28.247 6.602h-.097a59.965 59.965 0 0 0-1.167 11.794c0 11.934 3.504 23.036 9.524 32.317.012.018.023.037.036.055a61.858 61.858 0 0 0 2.09 3.009h.014c1.181 2.141 8.718 3.791 17.846 3.791 9.367 0 17.062-1.738 17.928-3.959.326-.441.643-.889.955-1.34l.215-.314c.298-.434.59-.873.877-1.316l.027-.043c.32-.498.634-1.004.939-1.514.017-.025.032-.053.049-.08.301-.502.596-1.01.883-1.523l.006-.01h-.001c.474-.844.929-1.701 1.361-2.57 8.308-.582 19.519-10.208 19.811-25.474l.015-.703c.001-6.443-7.1-6.963-13.992-7.014zm-29.072-.462c-13.414 0-24.288-1.958-24.288-4.375 0-2.416 10.874-4.375 24.288-4.375 13.413 0 24.287 1.959 24.287 4.375 0 2.417-10.874 4.375-24.287 4.375zm37.211 8.061c-.172 8.976-5.028 15.451-10.021 18.283a60.242 60.242 0 0 0 3.116-19.194c0-.271-.006-.542-.015-.812 6.731.186 6.934.989 6.934 1.068l-.014.655z"></path></g><!----></svg> 